<?xml version="1.0" encoding="utf-8"?>
<!-- Generator: Adobe Illustrator 19.0.0, SVG Export Plug-In . SVG Version: 6.00 Build 0)  -->
<svg version="1.1" id="Layer_1" xmlns="http://www.w3.org/2000/svg" xmlns:xlink="http://www.w3.org/1999/xlink" x="0px" y="0px"
	 viewBox="0 0 500 500" style="enable-background:new 0 0 500 500;" xml:space="preserve">
<style type="text/css">
	.st0{clip-path:url(#XMLID_218_);fill:url(#XMLID_219_);}
	.st1{clip-path:url(#XMLID_223_);fill:url(#XMLID_224_);}
	.st2{clip-path:url(#XMLID_225_);fill:url(#XMLID_226_);}
	.st3{fill:#FFFFFF;}
	.st4{fill:#1D1D1B;}
	.st5{fill:#040000;}
	.st6{fill:#B41B5B;}
	.st7{clip-path:url(#XMLID_227_);fill:url(#XMLID_228_);}
</style>
<g id="XMLID_1_">
	<g id="XMLID_5_">
		<defs>
			<path id="XMLID_4_" d="M425.6,106.7L425.6,106.7l-33,174.1l-0.3,1.6l0.6,0.1l0,0l0,0c0.4,0.1,0.8-0.6,1.1-1.5l38.3-149.8
				c0.2-0.9,0.2-2.3,0-3.2l-1.4-4.9v0l-2.6-9.5l-1.9-7l0,0l-0.4-1.6L425.6,106.7z"/>
		</defs>
		<clipPath id="XMLID_218_">
			<use xlink:href="#XMLID_4_"  style="overflow:visible;"/>
		</clipPath>
		
			<linearGradient id="XMLID_219_" gradientUnits="userSpaceOnUse" x1="-0.2873" y1="8.075535e-002" x2="0.6252" y2="8.075535e-002" gradientTransform="matrix(-38.7847 180.9957 180.9957 38.7847 403.0148 166.4654)">
			<stop  offset="0" style="stop-color:#A91F5C"/>
			<stop  offset="0.4724" style="stop-color:#A91F5C"/>
			<stop  offset="0.7771" style="stop-color:#812149"/>
			<stop  offset="1" style="stop-color:#691F3E"/>
		</linearGradient>
		<polygon id="XMLID_6_" class="st0" points="355.9,274.8 394.1,96.8 468.9,112.9 430.8,290.9 		"/>
	</g>
	<g id="XMLID_8_">
		<defs>
			<polygon id="XMLID_7_" points="392.3,282.4 392,282.3 392,282.3 			"/>
		</defs>
		<clipPath id="XMLID_223_">
			<use xlink:href="#XMLID_7_"  style="overflow:visible;"/>
		</clipPath>
		
			<linearGradient id="XMLID_224_" gradientUnits="userSpaceOnUse" x1="-0.235" y1="-0.1031" x2="0.6776" y2="-0.1031" gradientTransform="matrix(-157.7147 164.9934 164.9934 157.7147 472.4933 232.3777)">
			<stop  offset="0" style="stop-color:#F8DAE6"/>
			<stop  offset="0.2445" style="stop-color:#C65D7C"/>
			<stop  offset="0.3497" style="stop-color:#B41B5B"/>
			<stop  offset="0.4891" style="stop-color:#9D2055"/>
			<stop  offset="0.8324" style="stop-color:#672346"/>
			<stop  offset="1" style="stop-color:#532340"/>
		</linearGradient>
		<polygon id="XMLID_9_" class="st1" points="392,282.4 392.1,282.2 392.3,282.4 392.2,282.5 		"/>
	</g>
	<g id="XMLID_16_">
		<defs>
			<path id="XMLID_15_" d="M238,205l0.5-5.6h14.5l-3.9,44.5c0,0-9.5,0.5-8.7-9.2c0-0.4,0.1-0.9,0.1-1.3c0.4-4.6,1-11.1,1.3-15.1
				c0.4-4.1,0.6-6.9,0.6-6.9l0.4-4l0.2-1.6h-5L238,205L238,205z M361.4,234.1c2.4-2.2,3.9-6.9,4.5-14l1.8-21.3c0,0,0.5-5.7,6.7-5.7
				h1.5l-0.6,5.7l-1.6,19.8c-0.5,5.3-1.1,9.1-1.9,11.6c-0.8,2.5-2.3,4.9-4.3,7.3c-3.8,4.3-9.4,6.4-16.5,6.4
				c-7.3,0-12.5-1.9-15.6-5.7c-3.1-3.8-4.3-9.7-3.6-17.6l1.8-21.3h-5.5c0.1-0.8,0.6-6.3,0.6-6.3H344l-0.5,6.3l-1.6,19.1
				c-0.4,4.8-0.5,8.3-0.2,10.4c0.2,2,0.9,3.7,2,5c2.1,2.5,4.9,3.7,8.7,3.7C355.9,237.6,358.9,236.5,361.4,234.1 M260.3,240.2
				c-2-2.4-2.7-6.1-2.3-11.1l2-23.6l0.5-6.2l0.6-7.3l9.7-2.3l-0.8,9.6h7.3l-0.4,6.2h-7.3l-2.2,24.6c-0.2,2.6,0,4.6,0.8,5.9
				c0.7,1.2,1.9,1.7,3.5,1.7c5.5,0,5.3,5.2,5.3,5.2s-4.2,0.9-7,0.9C265.6,243.9,262.3,242.7,260.3,240.2 M244.3,191.5
				c0.2-2.6,2.5-4.7,5.1-4.7c2.6,0,4.5,2.1,4.3,4.7c-0.2,2.6-2.5,4.7-5.1,4.7C246,196.2,244.1,194.1,244.3,191.5 M424.7,105.5
				c-0.1,0-0.2,0-0.3,0l-221.1,57.6c-0.9,0.2-2,1-2.6,1.7L152.1,229c-0.6,0.7-0.3,1.5,0.6,1.7l40.8,8.8l10.7,2.3
				c-4.5-1.7-7.9-4.1-9.6-6.2c-4.6-5.5-6.6-13-5.5-21c2.8-20.3,17.4-29.4,30.9-29.4c6.4,0,12.5,1.1,17.3,3.7l0.1,0
				c-0.1,1.2-0.9,7.4-1.1,9h-6.5l0.4-3.5c-2.4-1.5-11.1-2.9-18.2,0c-8.4,3.9-12,13.8-12.5,20.5c-0.3,4.8,0.3,11,3.7,15.6
				c3.4,4.5,12.8,8,23.8,4.3c4.9-1.7,7.1,3.4,7.1,3.4l-0.5,0.3c-7.4,4.4-14.5,5.6-20.6,5.1l72.6,15.7l9.9-18.5l-11.2-35.2h-4.7
				l0.6-6.4h12l1.9,5.7l7.9,24.1l13.2-24.1c0,0,2.3-5.7,9.6-5.7h2.4c0,0-30.8,54.8-33.6,59.9c-0.3,0.6-0.7,1.1-1.1,1.6l99.6,21.5
				l0.1,0l0.2,0l0,0c0.8,0,1.4-0.5,1.6-1.3l31.7-174.3v-0.1l0.3-1.6L424.7,105.5z"/>
		</defs>
		<clipPath id="XMLID_225_">
			<use xlink:href="#XMLID_15_"  style="overflow:visible;"/>
		</clipPath>
		
			<linearGradient id="XMLID_226_" gradientUnits="userSpaceOnUse" x1="-0.2349" y1="-4.602071e-002" x2="0.6776" y2="-4.602071e-002" gradientTransform="matrix(-157.7147 164.9934 164.9934 157.7147 364.7703 129.4074)">
			<stop  offset="0" style="stop-color:#F8DAE6"/>
			<stop  offset="0.2445" style="stop-color:#C65D7C"/>
			<stop  offset="0.3497" style="stop-color:#B41B5B"/>
			<stop  offset="0.4891" style="stop-color:#9D2055"/>
			<stop  offset="0.8324" style="stop-color:#672346"/>
			<stop  offset="1" style="stop-color:#532340"/>
		</linearGradient>
		<polygon id="XMLID_17_" class="st2" points="63,197.7 282.6,-32 514.5,189.7 294.9,419.4 		"/>
	</g>
	<path id="XMLID_3_" class="st3" d="M269.6,205.5h7.3l0.4-6.2h-7.3l0.8-9.6l-9.7,2.3l-0.6,7.3l-0.6,6.2l-2,23.6
		c-0.4,5,0.3,8.7,2.3,11.1c2,2.4,5.3,3.7,9.8,3.7c2.8,0,7-0.9,7-0.9s0.2-5.2-5.3-5.2c-1.7,0-2.8-0.6-3.5-1.7
		c-0.8-1.3-1.1-3.2-0.8-5.9L269.6,205.5L269.6,205.5z"/>
	<path id="XMLID_18_" class="st3" d="M367.7,198.8l-1.8,21.3c-0.6,7.1-2.1,11.9-4.5,14c-2.5,2.4-5.5,3.5-9.2,3.5
		c-3.8,0-6.6-1.2-8.7-3.7c-1.1-1.3-1.7-3-2-5c-0.3-2.2-0.2-5.7,0.2-10.4l1.6-19.1l0.5-6.3h-15.4c0,0-0.5,5.5-0.6,6.3h5.5l-1.8,21.3
		c-0.7,7.9,0.5,13.8,3.6,17.6c3.1,3.8,8.4,5.7,15.6,5.7c7.1,0,12.6-2.2,16.5-6.4c2-2.3,3.5-4.7,4.3-7.3c0.8-2.5,1.4-6.3,1.9-11.6
		l1.6-19.8l0.6-5.7h-1.5C368.2,193.1,367.7,198.8,367.7,198.8"/>
	<path id="XMLID_19_" class="st3" d="M249.5,186.7c-2.6,0-4.9,2.1-5.1,4.7c-0.2,2.6,1.7,4.7,4.3,4.7c2.6,0,4.9-2.1,5.1-4.7
		C254,188.9,252.1,186.7,249.5,186.7"/>
	<path id="XMLID_20_" class="st3" d="M238,205l-0.1,0.7h5l-0.2,1.6l-0.4,4c0,0-0.2,2.9-0.6,6.9c-0.3,4-0.9,10.4-1.3,15.1
		c0,0.5-0.1,0.9-0.1,1.3c-0.8,9.7,8.7,9.2,8.7,9.2l3.9-44.5h-14.4L238,205L238,205z"/>
	<path id="XMLID_21_" class="st3" d="M327.2,199.3h-2.4c-7.3,0-9.6,5.7-9.6,5.7L302,229.2l-7.9-24.1l-1.9-5.7h-12l-0.6,6.4h4.7
		l11.2,35.2l-9.9,18.5l6.8,1.5c0.4-0.5,0.8-1,1.1-1.6C296.4,254.2,327.2,199.3,327.2,199.3"/>
	<path id="XMLID_22_" class="st3" d="M213.1,243.7l-8.8-1.9C206.8,242.8,209.8,243.4,213.1,243.7"/>
	<path id="XMLID_23_" class="st3" d="M233.6,238.5l0.5-0.3c0,0-2.2-5.1-7.1-3.4c-11.1,3.7-20.5,0.2-23.8-4.3
		c-3.3-4.5-4-10.8-3.7-15.6c0.5-6.7,4.1-16.7,12.5-20.5c7.1-2.9,15.8-1.5,18.2,0l-0.4,3.5h6.5c0.1-1.6,1-7.8,1.1-9l-0.1,0
		c-4.8-2.6-10.9-3.7-17.3-3.7c-13.5,0-28,9.1-30.9,29.4c-1.1,8,0.9,15.5,5.5,21c1.7,2.1,5.1,4.5,9.6,6.2l8.8,1.9
		C219.2,244.1,226.2,242.9,233.6,238.5"/>
	<path id="XMLID_24_" class="st4" d="M91.9,305.7c-0.9-1.2-2.3-1.8-3.8-1.8c-3.4,0-5.7,3-5.7,6.3c0,3.5,2.4,6.2,5.7,6.2
		c1.8,0,3.3-0.7,4.4-2.1l1.3,1.1c-1.3,1.8-3.3,2.6-5.7,2.6c-4.3,0-7.7-3.3-7.7-7.9c0-4.4,3.2-7.9,7.7-7.9c2,0,4,0.7,5.3,2.4
		L91.9,305.7L91.9,305.7z"/>
	<path id="XMLID_27_" class="st4" d="M96.1,302.6c0.7,0,1.2,0.6,1.2,1.2c0,0.7-0.5,1.2-1.2,1.2c-0.7,0-1.2-0.5-1.2-1.2
		C94.9,303.1,95.4,302.6,96.1,302.6 M95.3,307.7h1.7v10h-1.7V307.7z"/>
	<path id="XMLID_28_" class="st4" d="M105.3,309.1h-2.9v5c0,1.3,0,2.3,1.5,2.3c0.5,0,1-0.1,1.5-0.3l0.1,1.5
		c-0.6,0.3-1.3,0.4-1.9,0.4c-2.4,0-2.7-1.3-2.7-3.3v-5.5h-2.2v-1.4h2.2v-2.8h1.7v2.8h2.9V309.1z"/>
	<path id="XMLID_29_" class="st4" d="M111.6,319.9c-0.7,1.7-1.3,2.8-3.3,2.8c-0.5,0-1,0-1.5-0.3l0.2-1.4c0.3,0.1,0.7,0.2,1.2,0.2
		c1.1,0,1.5-0.7,1.8-1.6l0.7-1.9l-4.1-10h1.9l3.1,7.8h0l3-7.8h1.8L111.6,319.9L111.6,319.9z"/>
	<path id="XMLID_30_" class="st4" d="M134.6,311.9c0,3.3-1.5,6.1-5.7,6.1c-4.1,0-5.7-2.9-5.7-6.1v-9.3h1.8v9.1
		c0,2.4,0.9,4.7,3.9,4.7c3,0,3.9-2.3,3.9-4.7v-9.1h1.8V311.9z"/>
	<path id="XMLID_31_" class="st4" d="M137.3,310.1c0-0.9-0.1-1.7-0.1-2.4h1.6c0,0.5,0,1.1,0,1.6h0c0.4-1,1.7-1.9,3.3-1.9
		c2.6,0,3.8,1.6,3.8,4.1v6.1h-1.7v-6c0-1.7-0.7-2.7-2.3-2.7c-2.1,0-3.1,1.6-3.1,3.8v4.8h-1.7V310.1L137.3,310.1z"/>
	<path id="XMLID_34_" class="st4" d="M149.7,302.6c0.7,0,1.2,0.6,1.2,1.2c0,0.7-0.5,1.2-1.2,1.2c-0.7,0-1.2-0.5-1.2-1.2
		C148.5,303.1,149.1,302.6,149.7,302.6 M148.9,307.7h1.7v10h-1.7V307.7z"/>
	<polygon id="XMLID_35_" class="st4" points="152.6,307.7 154.5,307.7 157.6,315.5 157.6,315.5 160.6,307.7 162.4,307.7 
		158.4,317.6 156.6,317.6 	"/>
	<path id="XMLID_38_" class="st4" d="M172.5,315.8c-1.2,1.5-2.6,2.1-4.4,2.1c-3.1,0-5-2.3-5-5.2c0-3.1,2.2-5.2,5.1-5.2
		c2.8,0,4.7,1.9,4.7,5.2v0.5h-8c0.1,1.7,1.4,3.2,3.3,3.2c1.4,0,2.4-0.5,3.2-1.5L172.5,315.8L172.5,315.8z M171.1,311.8
		c-0.1-1.7-1.2-2.8-3-2.8c-1.8,0-3,1.1-3.3,2.8H171.1z"/>
	<path id="XMLID_39_" class="st4" d="M174.8,310.1c0-0.9-0.1-1.7-0.1-2.4h1.6c0,0.5,0,1.1,0,1.6h0c0.4-1,1.7-1.9,3.3-1.9
		c0.2,0,0.4,0,0.7,0.1l-0.1,1.7c-0.3-0.1-0.6-0.1-0.9-0.1c-2,0-2.9,1.4-2.9,3.7v4.8h-1.7V310.1z"/>
	<path id="XMLID_40_" class="st4" d="M182.3,315c0.7,0.8,1.4,1.3,2.5,1.3c1,0,2.2-0.5,2.2-1.5c0-1.1-1.1-1.3-2.1-1.6
		c-1.9-0.4-3.5-0.8-3.5-2.9c0-1.9,1.9-2.9,3.7-2.9c1.4,0,2.7,0.5,3.4,1.8l-1.4,0.9c-0.4-0.7-1.1-1.2-2.1-1.2c-0.9,0-2,0.4-2,1.4
		c0,0.8,1.2,1.2,2.5,1.4c1.8,0.3,3.2,1,3.2,3c0,2.3-2,3.1-4,3.1c-1.7,0-2.9-0.4-3.9-1.8L182.3,315L182.3,315z"/>
	<path id="XMLID_43_" class="st4" d="M191.6,302.6c0.7,0,1.2,0.6,1.2,1.2c0,0.7-0.5,1.2-1.2,1.2c-0.7,0-1.2-0.5-1.2-1.2
		C190.4,303.1,191,302.6,191.6,302.6 M190.8,307.7h1.7v10h-1.7V307.7z"/>
	<path id="XMLID_44_" class="st4" d="M201.2,309.1h-2.9v5c0,1.3,0,2.3,1.5,2.3c0.5,0,1-0.1,1.5-0.3l0.1,1.5
		c-0.6,0.3-1.3,0.4-1.9,0.4c-2.4,0-2.7-1.3-2.7-3.3v-5.5h-2.2v-1.4h2.2v-2.8h1.7v2.8h2.9V309.1z"/>
	<path id="XMLID_45_" class="st4" d="M207.8,319.9c-0.7,1.7-1.3,2.8-3.3,2.8c-0.5,0-1,0-1.5-0.3l0.2-1.4c0.3,0.1,0.7,0.2,1.2,0.2
		c1.1,0,1.5-0.7,1.8-1.6l0.7-1.9l-4.1-10h1.9l3.1,7.8h0l3-7.8h1.8L207.8,319.9L207.8,319.9z"/>
	<path id="XMLID_48_" class="st4" d="M223.4,307.4c3.1,0,5.3,2.1,5.3,5.2c0,3.1-2.3,5.2-5.3,5.2s-5.3-2.1-5.3-5.2
		C218.1,309.6,220.4,307.4,223.4,307.4 M223.4,316.4c2.1,0,3.5-1.6,3.5-3.7c0-2.1-1.4-3.7-3.5-3.7c-2.1,0-3.5,1.6-3.5,3.7
		C219.9,314.7,221.3,316.4,223.4,316.4"/>
	<path id="XMLID_49_" class="st4" d="M232.3,309.1h-2.2v-1.4h2.2v-2.2c0-2.4,0.8-4.1,3.5-4.1c0.4,0,1,0.1,1.3,0.3l-0.2,1.5
		c-0.4-0.1-0.7-0.2-1.1-0.2c-1.7,0-1.8,1.3-1.8,3v1.9h2.4v1.4h-2.4v8.5h-1.7V309.1z"/>
	<polygon id="XMLID_50_" class="st4" points="247,317.6 245.2,317.6 245.2,302.6 247,302.6 247,309 255,309 255,302.6 256.8,302.6 
		256.8,317.6 255,317.6 255,310.6 247,310.6 	"/>
	<path id="XMLID_53_" class="st4" d="M264,307.4c3.1,0,5.3,2.1,5.3,5.2c0,3.1-2.3,5.2-5.3,5.2c-3.1,0-5.3-2.1-5.3-5.2
		C258.7,309.6,260.9,307.4,264,307.4 M264,316.4c2.1,0,3.5-1.6,3.5-3.7c0-2.1-1.4-3.7-3.5-3.7c-2.1,0-3.5,1.6-3.5,3.7
		C260.5,314.7,261.8,316.4,264,316.4"/>
	<path id="XMLID_54_" class="st4" d="M271.3,310.1c0-0.9-0.1-1.7-0.1-2.4h1.6c0,0.5,0,1.1,0,1.6h0c0.4-1,1.7-1.9,3.3-1.9
		c2.6,0,3.8,1.6,3.8,4.1v6.1h-1.7v-6c0-1.7-0.7-2.7-2.3-2.7c-2.1,0-3.1,1.6-3.1,3.8v4.8h-1.7L271.3,310.1L271.3,310.1z"/>
	<path id="XMLID_57_" class="st4" d="M292.8,317.2c0,3.6-1.9,5.6-5.4,5.6c-1.9,0-3.5-0.5-4.9-1.9l1.2-1.4c1,1.1,2.2,1.7,3.7,1.7
		c3,0,3.8-1.9,3.8-4v-1.3h0c-0.8,1.3-2.2,1.9-3.5,1.9c-3.1,0-5.3-2.2-5.3-5.1c0-3.3,2.1-5.2,5.3-5.2c1.3,0,2.8,0.6,3.5,2h0v-1.7h1.7
		V317.2L292.8,317.2z M287.6,316.2c2.3,0,3.5-1.7,3.5-3.6c0-2.1-1.4-3.7-3.5-3.7c-2.1,0-3.5,1.6-3.5,3.7
		C284.1,314.7,285.6,316.2,287.6,316.2"/>
	<path id="XMLID_60_" class="st4" d="M318.6,307.4c3.1,0,5.3,2.1,5.3,5.2c0,3.1-2.2,5.2-5.3,5.2c-3.1,0-5.3-2.1-5.3-5.2
		C313.3,309.6,315.5,307.4,318.6,307.4 M318.6,316.4c2.1,0,3.5-1.6,3.5-3.7c0-2.1-1.4-3.7-3.5-3.7c-2.1,0-3.5,1.6-3.5,3.7
		C315.1,314.7,316.4,316.4,318.6,316.4"/>
	<path id="XMLID_61_" class="st4" d="M325.9,310.1c0-0.9-0.1-1.7-0.1-2.4h1.6c0,0.5,0,1.1,0,1.6h0c0.4-1,1.7-1.9,3.3-1.9
		c2.6,0,3.8,1.6,3.8,4.1v6.1h-1.7v-6c0-1.7-0.7-2.7-2.3-2.7c-2.1,0-3.1,1.6-3.1,3.8v4.8h-1.7V310.1L325.9,310.1z"/>
	<path id="XMLID_64_" class="st4" d="M347.4,317.2c0,3.6-1.9,5.6-5.4,5.6c-1.9,0-3.5-0.5-4.9-1.9l1.2-1.4c1,1.1,2.2,1.7,3.7,1.7
		c3,0,3.8-1.9,3.8-4v-1.3h0c-0.8,1.3-2.2,1.9-3.5,1.9c-3.1,0-5.3-2.2-5.3-5.1c0-3.3,2.1-5.2,5.3-5.2c1.3,0,2.8,0.6,3.5,2h0v-1.7h1.7
		V317.2L347.4,317.2z M342.2,316.2c2.3,0,3.6-1.7,3.6-3.6c0-2.1-1.4-3.7-3.6-3.7c-2.1,0-3.5,1.6-3.5,3.7
		C338.7,314.7,340.2,316.2,342.2,316.2"/>
	<polygon id="XMLID_65_" class="st4" points="303.3,310 303.3,317.6 301.5,317.6 301.5,302.6 303.3,302.6 303.3,309.1 303.6,309.1 
		310.4,302.6 313,302.6 305.5,309.5 313.3,317.6 310.7,317.6 303.6,310 	"/>
	<path id="XMLID_70_" class="st5" d="M101.9,270.5c-2.5,0.5-5.3,0.9-8.4,1.2v3h10.7v1h-9.4c2.1,2.2,5.5,4.3,10.1,6.2l-0.9,1
		c-4.7-2.1-8.2-4.5-10.4-7.2h-0.1v5h-1.1v-5h-0.1c-1.1,1.4-2.6,2.7-4.5,4c-2.3,1.5-4.4,2.6-6.4,3.4l-0.5-1c1.8-0.7,3.8-1.6,5.8-2.9
		c1.8-1.1,3.2-2.3,4.1-3.4h-9.3v-1h10.7v-2.9c-2.7,0.2-5.5,0.4-8.5,0.5l-0.3-1.1c5.9,0,11.8-0.6,17.7-1.8L101.9,270.5L101.9,270.5z
		 M100.1,293.3h-1.1v-1.7H87.1v1.7h-1.1v-11.6h14.1V293.3z M98.9,282.7H87.1v3.3h11.9V282.7z M98.9,287H87.1v3.5h11.9V287z"/>
	<path id="XMLID_77_" class="st5" d="M117.1,279.7l-0.7,0.9c-1.3-1.4-2.6-2.6-4-3.6l0.6-0.8C114.5,277.2,115.9,278.3,117.1,279.7
		 M117.6,283c-0.9,3.3-2.4,6.6-4.2,9.8l-1-0.7c1.8-2.9,3.3-6.2,4.3-9.7L117.6,283z M118.2,273.6l-0.7,0.9c-1.3-1.3-2.6-2.4-4-3.3
		l0.6-0.8C115.6,271.3,117,272.4,118.2,273.6 M123.1,273.1v-3.9h1.1v3.9h4.8v-3.9h1.1v3.9h4.5v1h-4.5v3.8h5.8v1h-5.7
		c1.3,1.9,3.3,3.6,6.1,5.2l-0.9,1c-2.9-1.9-5-3.9-6.4-6.2h-4.7c-0.4,0.9-0.9,1.9-1.6,2.9h8.4v5.2h-7.6v2.9c0,0.4,0.1,0.7,0.3,0.9
		c0.3,0.3,2.5,0.4,6.8,0.4c1.4,0,2.3-0.2,2.5-0.7c0.1-0.2,0.2-1.2,0.3-3.2l1.2,0.6c-0.1,2.2-0.3,3.3-0.4,3.4c-0.1,0.6-1.3,1-3.6,1
		c-4.9,0-7.4-0.2-7.5-0.5c-0.5-0.3-0.7-0.9-0.7-1.9v-7.7c-1,1.4-2.2,2.6-3.7,3.6l-0.8-0.8c1.4-1,2.5-2.1,3.5-3.3
		c0.8-1,1.3-1.9,1.7-2.8h-5.3v-1h5.3v-3.8h-3.8v-1L123.1,273.1L123.1,273.1z M123.5,286h6.4v-3.2h-6.4v0.3V286z M129.1,274.1h-4.8
		v3.8h4.8V274.1z"/>
	<path id="XMLID_81_" class="st5" d="M147.4,276.6v-6.7h1.1v6.7h3v1h-3v7.4c1.1-0.4,2.1-0.9,3-1.4l0.2,1.1c-2.7,1.4-5.2,2.4-7.3,3.1
		l-0.6-1.1c1.3-0.4,2.5-0.8,3.6-1.2v-7.9h-3.2v-1H147.4z M167.4,275.1h-6.2c0.1,2.6,0.3,4.8,0.7,6.8c0.2,1.1,0.4,2.2,0.6,3.1
		c1-1.8,1.8-4.4,2.4-7.6l1.2,0.3c-0.8,4.1-1.9,7-3.1,8.8l-0.1,0.1c0.3,1.1,0.7,2.1,1.1,2.9c0.7,1.5,1.3,2.2,1.8,2.2
		c0.2,0,0.4-0.2,0.5-0.5c0.2-0.4,0.3-1.6,0.5-3.5l1,0.8c-0.2,1.9-0.5,3.2-0.9,3.7c-0.3,0.4-0.7,0.6-1.2,0.6c-0.7,0-1.5-0.8-2.4-2.4
		c-0.4-0.8-0.8-1.7-1.2-2.8c-1.4,1.8-3.1,3.3-5.1,4.6l-0.7-0.9c2.3-1.6,4.1-3.3,5.3-5.2c-0.3-1.1-0.6-2.3-0.8-3.6
		c-0.4-2.3-0.7-4.8-0.9-7.6h-6.5v4h5.3c-0.2,4.4-0.4,7.1-0.8,8.2c-0.4,0.9-0.9,1.4-1.6,1.4c-0.5,0-1.4-0.2-2.6-0.5v-1.2
		c1.1,0.4,1.9,0.5,2.4,0.5c0.4,0,0.8-0.3,1-0.9c0.3-0.9,0.5-3,0.6-6.3h-4.2v1.5c0,3-0.4,5.3-1.2,7.1c-0.8,1.7-1.9,3.1-3.3,4.3
		l-0.7-0.9c1.3-1.1,2.3-2.4,3-4.1c0.7-1.6,1.1-3.8,1.1-6.5v-7.3h7.6c-0.1-1.6-0.1-3.2-0.1-5h1.2c0,1.8,0,3.5,0.1,5h6.2V275.1z
		 M166.1,272.9l-1,0.7c-0.5-1.2-1.3-2.4-2.2-3.5l0.9-0.6C164.7,270.5,165.5,271.7,166.1,272.9"/>
	<path id="XMLID_82_" class="st5" d="M188.6,272.3l-0.8,0.6h11.7v1.2H188v4.7h8.9v9.4c0,1.4-0.7,2-2,2c-1,0-2.2-0.2-3.6-0.7
		l-0.1-1.2c1.4,0.5,2.6,0.8,3.7,0.8c0.5,0,0.7-0.4,0.7-1.1v-8H188v13.2h-1.3v-13.2h-7.3v10.5h-1.3v-11.8h8.6v-4.7h-11.5v-1.2h12.2
		c-0.6-1.2-1.4-2.3-2.4-3.4l1-0.7C187,269.9,187.9,271,188.6,272.3"/>
	<path id="XMLID_83_" class="st5" d="M216.5,276.4c0.3-2.1,0.6-4.5,0.8-7.2h1.3c-0.2,2.7-0.4,5.1-0.7,7.2h11.5v1.3h-9.2
		c0.6,3.1,1.8,5.8,3.6,8.2c1.7,2.4,3.9,4.4,6.5,6l-1,1.2c-2.7-1.8-5-4-6.8-6.7c-1.8-2.6-3.1-5.5-3.7-8.8h-1
		c-0.6,3.5-1.4,6.2-2.4,7.9c-1.7,2.9-4.4,5.4-8.3,7.5l-1-0.9c3.6-1.9,6.2-4.3,8-7.2c1-1.6,1.8-4.1,2.4-7.3H207v-1.3H216.5z"/>
	<path id="XMLID_84_" class="st5" d="M249.8,277.7c0.7,0.6,1.3,1.2,2,1.9l0.7-0.8c-0.6-0.6-1.3-1.2-1.9-1.7c0.6-0.5,1.1-1.2,1.6-1.9
		l-0.6-0.7c-0.5,0.7-1.1,1.4-1.8,2c-0.8-0.6-1.5-1.1-2.3-1.6l-0.6,0.7c0.7,0.4,1.4,0.9,2.1,1.5c-0.8,0.7-1.8,1.2-2.8,1.7l0.5,0.8
		C247.9,279.1,248.9,278.4,249.8,277.7"/>
	<path id="XMLID_85_" class="st5" d="M246.9,274.5c1.2-0.5,2.2-1.2,3.1-1.9c0.6,0.5,1.2,1.1,1.8,1.7l0.7-0.8
		c-0.6-0.5-1.2-1.1-1.8-1.5c0.7-0.6,1.3-1.4,1.9-2.1l-0.6-0.7c-0.6,0.8-1.3,1.6-2,2.3c-0.8-0.6-1.7-1.2-2.6-1.8l-0.6,0.7
		c0.8,0.5,1.6,1.1,2.4,1.7c-0.8,0.7-1.8,1.2-2.9,1.7L246.9,274.5L246.9,274.5z"/>
	<path id="XMLID_86_" class="st5" d="M239.5,281h19.7v2.7h1.1V280h-1.7l0.5-9.5h-5.7v1h4.6l-0.1,2.1h-4.6v1.1h4.5l-0.1,2h-4.8v1h4.8
		l-0.1,2.2h-16.3l0-2.4h5v-1h-5.1l0-1.9h4.9v-1.1H241l0-1.4c1.8-0.3,3.4-0.8,4.9-1.5l-0.6-1c-1.7,0.7-3.5,1.3-5.4,1.5l0.2,8.8h-1.7
		v3.7h1.1V281L239.5,281z"/>
	<path id="XMLID_87_" class="st5" d="M261.1,287.2h-11.3c0-0.2-0.1-0.3-0.2-0.5c2.7-0.8,5.1-1.8,7.1-3v-0.9H242v1h12.6
		c-1.5,0.7-3.3,1.4-5.2,1.9h0c0,0-0.1,0-0.3,0.1l0,0c-0.3,0.1-0.6,0.2-1,0.3c0.2,0.4,0.4,0.8,0.6,1.2h-11.1v1H249
		c0.2,0.7,0.3,1.4,0.3,2.2c0,0.7-0.1,1.2-0.3,1.3c-0.2,0.1-0.4,0.2-0.7,0.2c-0.8,0-1.7-0.2-2.8-0.6l0.1,1.2c1.1,0.3,2,0.5,3,0.5
		c0.6,0,1-0.1,1.3-0.4c0.4-0.3,0.6-1,0.6-2.2c0-0.7-0.1-1.4-0.3-2.2h11V287.2L261.1,287.2z"/>
	<path id="XMLID_95_" class="st6" d="M85.5,354.3c1.3,0.3,2.1,0.6,3.2,1.4l-0.8,1c-1.1-0.8-2.2-1.2-3.6-1.5l0.7-0.9h-3.6v-1.2
		l10.7,0l0-0.7h1.3v0.7h3.7l0,1.2l-3.7,0v2c0,0.8-0.7,1.1-1.3,1.1c-0.8,0-1.6,0.1-2.5,0c-0.2-0.4-0.3-0.8-0.4-1.3c1,0,1.8,0.1,2.6,0
		c0.2,0,0.3,0,0.3-0.5l0-1.4H85.5z M82.3,352.6c-0.2-0.4-0.4-0.7-0.6-1.3l6.9-0.2v-0.8l-5.3,0v-5.2h5.3v-0.7h-6.8v-1.2h6.8l0-1.5
		h1.3l0,1.4l6.9,0v1.2h-7v0.7h5.3v5.2h-0.5c0.5,0.3,1.5,0.9,2.2,2c-0.4,0.2-0.6,0.5-1,0.7c-0.2-0.4-0.5-0.7-0.8-0.9L82.3,352.6
		L82.3,352.6z M88.6,349v-0.8l-4,0v0.8H88.6z M84.6,346.3v0.7h4v-0.7L84.6,346.3L84.6,346.3z M89.9,346.3l0,0.7l4,0l0-0.7
		L89.9,346.3z M93.5,350.9l-0.7-0.4l0.3-0.2l-3.3,0v0.8L93.5,350.9z M89.9,348.2v0.8h4l0-0.8H89.9z"/>
	<path id="XMLID_100_" class="st6" d="M108.5,353.3c-1.9,1.8-4,2.9-6.6,3.5l-0.7-1.1c2.5-0.5,4.2-1.3,5.5-2.4H102v-1.3h6.6v-0.9
		h-5.2v-1.2h5.2v-0.8h-6.1v-1.3h3.9c-0.2-0.3-0.8-0.7-1.5-1.1l0.7-0.5h-3.7V345h5.3v-3.3h1.4v3.3h1.6v-3.3h1.4v3.3h5.3v1.2h-4.2
		l0.6,0.3c-0.3,0.4-0.7,0.9-1.1,1.3h3.9v1.3h-5.9v0.8h5v1.2h-5v0.9h6.7v1.3h-5.2c1.4,1.2,3.2,1.8,5.8,2.3l-0.7,1.2
		c-2.6-0.5-4.5-1.3-6.7-3.4v4.2h-1.4V353.3z M104,342c0.7,0.4,1.7,1.3,2.2,2.1l-1,0.7c-0.6-0.8-1.3-1.5-2.2-2.1L104,342L104,342z
		 M106.5,346.2c0.5,0.4,1.2,1,1.6,1.6h2.2c0.6-0.5,1-1,1.4-1.6H106.5z M115.4,342.7c-0.6,0.8-1.3,1.5-2.2,2.2l-1-0.8
		c0.9-0.6,1.6-1.2,2.2-2.1L115.4,342.7z"/>
	<path id="XMLID_109_" class="st6" d="M137,346.4h-5c-0.2,0.2-0.5,0.5-0.7,0.7l6.7,0v5h-6.1c-0.1,1.7-0.7,3.3-1.9,4.8l-1.1-0.7
		c1.7-2.2,1.7-3.5,1.7-5.8l0-2.6c-0.2,0.2-1.1,0.7-1.7,1l-0.6-1.1c1.9-0.9,4.2-3.6,5.1-6.1l1.1,0.5c0,0.2-0.1,0.4-0.2,0.5
		c1.8,0.5,3.4,1.6,4.9,3.1l-1,0.8c-0.4-0.5-1-1-1.3-1.2V346.4L137,346.4z M131.9,348.3l0,0.7l4.7,0v-0.7H131.9L131.9,348.3z
		 M136.6,350.2l-4.7,0l0,0.8h4.7V350.2z M137.1,357.5l0-1l-3.9,0v1.2h-1.3v-4.8l6.5,0l0,4.7H137.1z M136.9,345.1
		c-0.9-0.7-1.9-1.1-3-1.4c-0.3,0.4-0.6,1-0.9,1.4H136.9z M137.1,354h-3.8v1.3h3.8V354z M139.4,343.7h1.3v10.4h-1.3V343.7z
		 M143.3,341.8v14.2c0,0.7-0.4,1.3-1.3,1.4c-0.6,0.1-1,0-1.7,0.1l-0.5-1.4c0.6,0.2,1.2,0.2,1.6,0.1c0.3-0.1,0.5-0.3,0.5-0.5v-13.9
		H143.3L143.3,341.8z"/>
	<path id="XMLID_113_" class="st6" d="M155.7,345.1c-0.1,0.5-0.7,1.5-1.1,2.1l2.3,0l0,1.3l-3.4,0l0,1.3l2.8,0l0,1.3l-2.8,0l0,0.7
		l0.3-0.4c0.9,0.6,1.9,1.4,2.6,2.3l-1,0.9c-0.7-0.9-1.3-1.5-1.9-1.9l0,4.8h-1.4V353c-0.8,0.9-1.9,1.9-3.3,2.7
		c-0.3-0.4-0.5-0.7-0.8-1.1c1.7-0.8,3.2-2.3,4-3.5h-2.7l0-1.3l2.8,0v-1.3h-3.5l0-1.3l2.5,0c-0.2-0.6-1.1-1.6-1.6-2.1l1-0.5l-1.4,0
		v-1.2l2.9,0c-0.2-0.3-0.5-0.8-1.1-1.3l1.3-0.6c0.5,0.7,1.1,1.4,1.3,1.9h3l0,1.3h-1.6L155.7,345.1z M150.8,344.6
		c0.8,0.9,1.3,1.7,1.7,2.6h0.7c0.6-0.7,1-1.6,1.3-2.6H150.8z M158.6,350.4c0,2.4-0.8,5.1-2.1,7l-1.2-0.9c1.5-2.2,2-4.5,2-7.3v-5.9
		c2-0.2,3.7-0.7,5.3-1.7l0.8,1.1c-1.6,0.9-3.2,1.3-4.8,1.6v2.6h5.1v1.3h-2v9.2h-1.3l0-9.2h-1.7V350.4z"/>
	<path id="XMLID_117_" class="st6" d="M190.2,343.7c0.1,3.3,0,6-0.1,8l-0.2,3c-0.1,0.9-0.1,2.1-1.2,2.5c-0.9,0.4-1.9,0-2.9-0.2
		c-0.1-0.5-0.2-0.9-0.2-1.4c0.9,0.2,1.6,0.5,2.4,0.5c0.2-0.1,0.4-0.1,0.5-0.3c0.2-1,0.2-1.9,0.3-3c0.1-2,0.1-5.9,0.1-7.8l-5.6,0
		c-0.5,1.1-1,1.9-1.7,2.8h1.2v5.5l4.1-0.6v-0.8l-1.2,0.5c-0.2-0.4-0.3-1-0.6-1.6c-0.1,0.3-0.6,1.1-1.2,1.9c-0.4-0.2-0.7-0.5-1.1-0.7
		c0.7-0.9,1.1-1.8,1.5-2.5c-0.5-0.7-1-1.5-1.9-2.2l1.2-0.6c0.5,0.5,0.8,0.8,1.3,1.3c0.3-0.9,0.4-1.5,0.6-2.5
		c0.5,0.1,0.7,0.3,1.1,0.4c-0.2,1.3-0.5,2.4-0.9,3.5c0.4,0.8,0.8,1.6,1,2.4l0-3.9h1.3v7.3h-1.2v-1.1l-5.3,0.8v-6.9l-0.2,0.2
		l-0.7-0.4v8.3c-0.1,0.5-0.4,0.9-0.9,1.1c-0.5,0.3-1.1,0.2-1.6,0.2l-0.5-1.3c0.8-0.1,1.4,0.3,1.6-0.1l0.1-0.2v-4.1l-1.1,1.1
		c-0.2-0.2-0.5-0.4-0.7-0.5c-0.1,1.7-0.4,3.6-1.4,5.4l-1.1-0.9c0.5-0.9,0.9-1.8,1-2.7c0.1-0.6,0.1-1.2,0.2-1.8
		c0.1-0.6,0.1-1.2,0.1-1.8l0-7.9l4.3,0l0,4.3c1.3-1.5,2-3.3,2.5-5.3c0.5,0.2,0.8,0.3,1.2,0.5c-0.1,0.7-0.3,1.3-0.4,1.7L190.2,343.7
		L190.2,343.7z M179.3,343.7h-1.7l0,1.8l0.5-0.2c0.5,0.5,1,1,1.3,1.5L179.3,343.7z M179.4,348.1c-0.2,0.1-0.5,0.2-0.8,0.3
		c-0.2-0.9-0.6-1.6-0.9-1.9c0,1.7,0,3.2,0,4.8c0.4-0.4,1.1-1.2,1.7-1.8V348.1z"/>
	<path id="XMLID_130_" class="st6" d="M194.6,349.5c0.4-0.9,1.1-2.5,1.2-4.4l1.2,0.3c0,1.1-0.5,3.2-1.1,4.5L194.6,349.5z
		 M198.7,345.1c0.8,0.8,1.2,1.9,1.6,2.9l-1.3,0.7c-0.2-0.9-0.5-1.6-0.7-1.9l0,10.7H197v-15.8h1.3l0,3.6L198.7,345.1z M201.9,354.7
		c-0.4,0.1-1,0.5-2.2,0.8l-0.8-1c1.9-0.5,3.6-1.3,5.2-2.5l0.8,0.8c-0.6,0.5-1.1,1-1.8,1.4l0,1.6l2.4-0.8l0,1.4l-3.6,1.1l-0.9-0.9
		c0.4-0.2,0.8-0.5,0.9-0.7V354.7L201.9,354.7z M204,342.8c-0.1-0.1-0.3-0.4-0.9-0.8l1.3-0.7c0.5,0.5,0.9,1,1.1,1.5h4.9l0,1.3h-10.8
		v-1.3L204,342.8L204,342.8z M203.3,350.6c-1.1-0.5-2.2-0.8-3.7-0.6l0.6-1.2c1.3-0.1,2.4,0.3,3.6,0.7L203.3,350.6z M199.6,351.7
		c1.4-0.3,2.8-0.8,4.1-1.1v1l-0.6,0.2l-2.9,0.9L199.6,351.7L199.6,351.7z M205.7,348.5l0,3.2h-1.3l0-3.2h-3.8l0-3.6l8.9,0v3.6
		l0.3-0.2l0.5,1.1c-1.2,0.6-2.5,0.8-3.8,0.9l-0.6-1.2c1.3,0,2.3-0.3,3.4-0.6L205.7,348.5L205.7,348.5z M201.8,347.3h1.3V346h-1.3
		V347.3z M205.7,347.3V346h-1.3v1.3L205.7,347.3z M205.9,352.5c0.3,0.7,0.5,1.2,1.1,1.8c0.8-0.5,1.2-0.9,1.9-1.7l1,0.8
		c-0.6,0.7-1.2,1.3-1.8,1.6c0.8,0.6,1.7,1,3,1.4l-0.8,1.1c-2.2-0.6-4.7-2.1-5.4-4.5L205.9,352.5L205.9,352.5z M209.7,352.8
		c-1.1-0.6-2.4-1.1-3.8-1.1l0.7-1.1c1.4,0.1,2.6,0.5,3.8,1.2L209.7,352.8z M208.2,346l-1.3,0v1.3h1.3L208.2,346z"/>
	<path id="XMLID_133_" class="st6" d="M221.9,352.8l-3.6,0v-1.3h3.6l0-2.5l-4.2,0l0-0.6c-0.5,0.3-1.3,0.6-2.2,1l-0.8-1.2
		c2.6-0.9,4.9-2.4,6.3-4.4l-2.6,0l0-1.3l5.1,0c1.3,2.7,4.1,4.6,7,5.5l-0.8,1.2c-0.9-0.3-1.7-0.7-2.3-1l0,0.8h-4.2l0,2.5h3.7v1.3
		h-3.7v2.6h6.4v1.3l-14,0v-1.3h6.3V352.8L221.9,352.8z M222.5,343.8c-0.8,1.7-2.6,3.2-3.8,3.9l7.9,0c-1.3-0.8-3-2.3-3.9-3.9
		L222.5,343.8L222.5,343.8z"/>
	<path id="XMLID_140_" class="st6" d="M240,348.7h-1.7v3.5c0.5-0.2,1.3-0.4,2.2-0.8v1.4l-2.3,0.8l-2.8,1c-0.3-0.4-0.5-0.7-0.9-1.2
		c1-0.3,1.9-0.5,2.6-0.8v-4h-1.8v-1.3h1.8v-3.1h-2.2v-1.3h5.4v1.3h-1.9l0,3.1h1.7L240,348.7L240,348.7z M242.9,352.9l-2.6,1.9
		c-0.5-0.3-0.8-0.5-1.3-0.9c1.9-1.1,3.5-2.4,5.1-3.5l0-4.3h-4.3v-1.3h4.4v-3.3h1.4v3.3l4.5,0l0,1.3h-4.5v9.9
		c-0.1,0.5-0.4,0.9-0.8,1.1c-0.7,0.3-1.6,0.1-2.4,0.1l-0.5-1.4c0.8,0.1,1.5,0.2,2.1,0.1c0.1-0.1,0.2-0.1,0.2-0.2l0-3.7L242.9,352.9
		L242.9,352.9z M241.3,346.6c0.9,0.8,1.6,1.8,2,3c-0.3,0.3-0.7,0.5-1.1,0.7c-0.4-1.2-1-2.2-2-3L241.3,346.6L241.3,346.6z
		 M249.5,355.2c-0.8-1.6-2.3-2.7-3.8-3.5l0.7-1c1.7,0.7,3.2,1.9,4,3.6L249.5,355.2z M246.5,341.8c1.1,0.4,2.1,1.2,2.8,2.2
		c-0.3,0.3-0.6,0.6-0.9,0.9c-0.7-1-1.5-1.7-2.7-2L246.5,341.8z M247.1,350.2c-0.4-0.2-0.6-0.5-1.1-0.7c0.9-0.8,1.7-1.7,2-2.8
		c0.5,0.2,0.7,0.4,1.1,0.6C248.8,348.4,248,349.5,247.1,350.2"/>
	<path id="XMLID_143_" class="st6" d="M82.1,363.2h3.1c2.7,0,5.1,0.8,5.1,3.7c0,2.9-2.1,3.9-4.7,3.9h-1v4.7h-2.5V363.2z M84.6,368.9
		h0.9c1.2,0,2.3-0.4,2.3-1.8c0-1.4-1.1-1.9-2.3-1.9h-0.9V368.9z"/>
	<path id="XMLID_144_" class="st6" d="M93.7,366.4h2.1v2.1h0c0.1-0.8,1.1-2.3,2.5-2.3c0.2,0,0.5,0,0.7,0.1v2.4
		c-0.2-0.1-0.6-0.2-1.1-0.2c-1.9,0-1.9,2.4-1.9,3.7v3.3h-2.4V366.4L93.7,366.4z"/>
	<path id="XMLID_147_" class="st6" d="M106.1,366.2c2.7,0,4.8,1.8,4.8,4.8c0,2.6-1.8,4.7-4.8,4.7c-3,0-4.7-2.1-4.7-4.7
		C101.4,368,103.4,366.2,106.1,366.2 M106.1,373.9c1.8,0,2.3-1.6,2.3-3.1c0-1.4-0.7-2.7-2.3-2.7c-1.5,0-2.3,1.3-2.3,2.7
		C103.8,372.2,104.3,373.9,106.1,373.9"/>
	<path id="XMLID_148_" class="st6" d="M115.4,368.1h-1.7v-1.7h1.7v-1.3c0-1.8,1-3.1,2.9-3.1c0.6,0,1.3,0.1,1.7,0.2l-0.2,2
		c-0.2-0.1-0.5-0.3-1-0.3c-0.8,0-1,0.7-1,1.4v1.1h2.1v1.7h-2.1v7.4h-2.4V368.1z"/>
	<path id="XMLID_151_" class="st6" d="M130.4,375c-0.9,0.5-1.9,0.7-3.1,0.7c-3,0-4.7-1.7-4.7-4.7c0-2.6,1.4-4.8,4.2-4.8
		c3.4,0,4.3,2.3,4.3,5.5h-6.3c0.1,1.5,1.1,2.3,2.6,2.3c1.1,0,2.1-0.4,3-0.9V375z M128.8,370c-0.1-1.1-0.6-2.1-1.9-2.1
		c-1.3,0-2,0.9-2.1,2.1H128.8z"/>
	<path id="XMLID_152_" class="st6" d="M140.1,368.3c-0.7-0.2-1.3-0.4-2.1-0.4c-0.6,0-1.4,0.2-1.4,1c0,1.5,4.1,0.5,4.1,3.8
		c0,2.1-1.9,3-3.8,3c-0.9,0-1.8-0.2-2.7-0.4l0.1-1.9c0.7,0.4,1.5,0.6,2.3,0.6c0.6,0,1.6-0.2,1.6-1.1c0-1.8-4.1-0.6-4.1-3.8
		c0-2,1.7-2.8,3.6-2.8c1.1,0,1.8,0.2,2.6,0.3L140.1,368.3z"/>
	<path id="XMLID_153_" class="st6" d="M149.7,368.3c-0.7-0.2-1.3-0.4-2.1-0.4c-0.6,0-1.4,0.2-1.4,1c0,1.5,4.1,0.5,4.1,3.8
		c0,2.1-1.9,3-3.8,3c-0.9,0-1.8-0.2-2.7-0.4l0.1-1.9c0.7,0.4,1.5,0.6,2.3,0.6c0.6,0,1.6-0.2,1.6-1.1c0-1.8-4.1-0.6-4.1-3.8
		c0-2,1.7-2.8,3.6-2.8c1.1,0,1.8,0.2,2.6,0.3L149.7,368.3z"/>
	<path id="XMLID_156_" class="st6" d="M153.9,362.5h2.4v2.3h-2.4V362.5z M153.9,366.4h2.4v9.1h-2.4V366.4z"/>
	<path id="XMLID_159_" class="st6" d="M164.7,366.2c2.7,0,4.8,1.8,4.8,4.8c0,2.6-1.7,4.7-4.8,4.7c-3,0-4.7-2.1-4.7-4.7
		C160,368,162,366.2,164.7,366.2 M164.7,373.9c1.8,0,2.3-1.6,2.3-3.1c0-1.4-0.7-2.7-2.3-2.7c-1.5,0-2.3,1.3-2.3,2.7
		C162.4,372.2,162.9,373.9,164.7,373.9"/>
	<path id="XMLID_160_" class="st6" d="M173.1,366.4h2.2v1.2h0c0.7-1,1.7-1.4,3-1.4c2.2,0,3.1,1.5,3.1,3.6v5.7H179v-4.9
		c0-1.1,0-2.6-1.5-2.6c-1.7,0-2.1,1.9-2.1,3v4.4h-2.4V366.4L173.1,366.4z"/>
	<path id="XMLID_163_" class="st6" d="M186,366.9c0.9-0.4,2.2-0.7,3.2-0.7c2.8,0,3.9,1.1,3.9,3.8v1.2c0,0.9,0,1.6,0,2.3
		c0,0.7,0.1,1.3,0.1,2h-2.1c-0.1-0.5-0.1-1.1-0.1-1.4h0c-0.5,1-1.7,1.6-2.8,1.6c-1.6,0-3.2-1-3.2-2.7c0-1.4,0.7-2.2,1.6-2.6
		c0.9-0.4,2.1-0.5,3.1-0.5h1.3c0-1.5-0.7-2-2-2c-1,0-2,0.4-2.8,1L186,366.9z M188.8,374c0.7,0,1.3-0.3,1.7-0.8
		c0.4-0.5,0.5-1.2,0.5-1.9h-1c-1.1,0-2.6,0.2-2.6,1.6C187.3,373.6,187.9,374,188.8,374"/>
	<rect id="XMLID_164_" x="197.2" y="362.2" class="st6" width="2.4" height="13.2"/>
	<rect id="XMLID_165_" x="205.9" y="367.6" class="st6" width="3" height="3"/>
	<path id="XMLID_166_" class="st6" d="M224.6,375.3c-0.9,0.2-1.9,0.4-2.8,0.4c-4,0-6.8-2-6.8-6.2c0-4.2,2.6-6.6,6.8-6.6
		c0.8,0,1.9,0.2,2.8,0.5l-0.2,2.1c-0.9-0.5-1.8-0.6-2.7-0.6c-2.5,0-4.1,1.9-4.1,4.5c0,2.5,1.6,4.4,4.2,4.4c1,0,2.1-0.2,2.7-0.5
		L224.6,375.3z"/>
	<path id="XMLID_167_" class="st6" d="M228,366.4h2.1v2.1h0c0.1-0.8,1.1-2.3,2.5-2.3c0.2,0,0.5,0,0.7,0.1v2.4
		c-0.2-0.1-0.6-0.2-1.1-0.2c-1.9,0-1.9,2.4-1.9,3.7v3.3H228V366.4L228,366.4z"/>
	<path id="XMLID_170_" class="st6" d="M243.5,375c-0.9,0.5-1.9,0.7-3.1,0.7c-3,0-4.7-1.7-4.7-4.7c0-2.6,1.4-4.8,4.2-4.8
		c3.4,0,4.3,2.3,4.3,5.5h-6.3c0.1,1.5,1.1,2.3,2.6,2.3c1.1,0,2.1-0.4,3-0.9V375z M242,370c-0.1-1.1-0.6-2.1-1.9-2.1
		c-1.3,0-2,0.9-2.1,2.1H242z"/>
	<path id="XMLID_173_" class="st6" d="M248.2,366.9c0.9-0.4,2.2-0.7,3.2-0.7c2.8,0,3.9,1.1,3.9,3.8v1.2c0,0.9,0,1.6,0,2.3
		c0,0.7,0.1,1.3,0.1,2h-2.1c-0.1-0.5-0.1-1.1-0.1-1.4h0c-0.5,1-1.7,1.6-2.8,1.6c-1.6,0-3.2-1-3.2-2.7c0-1.4,0.7-2.2,1.6-2.6
		c0.9-0.4,2.1-0.5,3.1-0.5h1.3c0-1.5-0.7-2-2-2c-1,0-2,0.4-2.8,1L248.2,366.9L248.2,366.9z M251,374c0.7,0,1.3-0.3,1.7-0.8
		c0.4-0.5,0.5-1.2,0.5-1.9h-1c-1.1,0-2.6,0.2-2.6,1.6C249.5,373.6,250.1,374,251,374"/>
	<path id="XMLID_174_" class="st6" d="M260.2,368.1h-1.7v-1.7h1.7v-1.8l2.4-0.8v2.6h2.1v1.7h-2.1v4.2c0,0.8,0.2,1.5,1.1,1.5
		c0.4,0,0.8-0.1,1.1-0.3l0.1,1.9c-0.5,0.1-1,0.2-1.7,0.2c-1.9,0-2.9-1.2-2.9-2.9V368.1L260.2,368.1z"/>
	<path id="XMLID_177_" class="st6" d="M268.1,362.5h2.4v2.3h-2.4V362.5z M268.1,366.4h2.4v9.1h-2.4V366.4z"/>
	<polygon id="XMLID_178_" class="st6" points="278.5,373 278.5,373 280.7,366.4 283.1,366.4 279.7,375.5 277,375.5 273.7,366.4 
		276.2,366.4 	"/>
	<path id="XMLID_181_" class="st6" d="M293.5,375c-0.9,0.5-1.9,0.7-3.1,0.7c-3,0-4.7-1.7-4.7-4.7c0-2.6,1.4-4.8,4.2-4.8
		c3.4,0,4.3,2.3,4.3,5.5h-6.3c0.1,1.5,1.1,2.3,2.6,2.3c1.1,0,2.1-0.4,3-0.9V375z M291.9,370c-0.1-1.1-0.6-2.1-1.9-2.1
		s-2,0.9-2.1,2.1H291.9z"/>
	<polygon id="XMLID_182_" class="st6" points="82.3,382.4 89.1,382.4 89.1,384.3 84.8,384.3 84.8,387.4 88.9,387.4 88.9,389.3 
		84.8,389.3 84.8,394.7 82.3,394.7 	"/>
	<path id="XMLID_185_" class="st6" d="M96.8,385.4c2.7,0,4.8,1.8,4.8,4.8c0,2.6-1.8,4.7-4.8,4.7c-3,0-4.7-2.1-4.7-4.7
		C92.1,387.2,94.1,385.4,96.8,385.4 M96.8,393.1c1.8,0,2.3-1.6,2.3-3.1c0-1.4-0.7-2.7-2.3-2.7c-1.5,0-2.3,1.3-2.3,2.7
		C94.6,391.4,95,393.1,96.8,393.1"/>
	<path id="XMLID_186_" class="st6" d="M105.3,385.6h2.1v2.1h0c0.1-0.8,1.1-2.3,2.5-2.3c0.2,0,0.5,0,0.7,0.1v2.4
		c-0.2-0.1-0.6-0.2-1.1-0.2c-1.9,0-1.9,2.4-1.9,3.7v3.3h-2.4V385.6z"/>
	<polygon id="XMLID_187_" class="st6" points="119.4,382.4 128.9,382.4 128.9,384.3 125.4,384.3 125.4,394.7 122.9,394.7 
		122.9,384.3 119.4,384.3 	"/>
	<path id="XMLID_188_" class="st6" d="M132.1,381.5h2.4v5.4h0c0.6-0.9,1.6-1.5,2.9-1.5c2.2,0,3.1,1.5,3.1,3.6v5.7H138v-4.9
		c0-1.1,0-2.6-1.5-2.6c-1.7,0-2.1,1.9-2.1,3v4.4h-2.4V381.5z"/>
	<path id="XMLID_191_" class="st6" d="M151.9,394.2c-0.9,0.5-1.9,0.7-3.1,0.7c-3,0-4.7-1.7-4.7-4.7c0-2.6,1.4-4.8,4.2-4.8
		c3.4,0,4.3,2.3,4.3,5.5h-6.3c0.1,1.5,1.1,2.3,2.6,2.3c1.1,0,2.1-0.4,3-0.9V394.2L151.9,394.2z M150.3,389.3
		c-0.1-1.1-0.6-2.1-1.9-2.1c-1.3,0-2,0.9-2.1,2.1H150.3z"/>
	<polygon id="XMLID_192_" class="st6" points="175.9,394.7 172.7,394.7 170.5,384.9 170.4,384.9 168.2,394.7 165.1,394.7 
		161.8,382.4 164.4,382.4 166.7,392.2 166.7,392.2 168.8,382.4 172.2,382.4 174.3,392.2 174.4,392.2 176.7,382.4 179.1,382.4 	"/>
	<path id="XMLID_195_" class="st6" d="M186.1,385.4c2.7,0,4.8,1.8,4.8,4.8c0,2.6-1.7,4.7-4.8,4.7c-3,0-4.7-2.1-4.7-4.7
		C181.3,387.2,183.4,385.4,186.1,385.4 M186.1,393.1c1.8,0,2.3-1.6,2.3-3.1c0-1.4-0.7-2.7-2.3-2.7c-1.5,0-2.3,1.3-2.3,2.7
		C183.8,391.4,184.3,393.1,186.1,393.1"/>
	<path id="XMLID_196_" class="st6" d="M194.5,385.6h2.1v2.1h0c0.1-0.8,1.1-2.3,2.5-2.3c0.2,0,0.5,0,0.7,0.1v2.4
		c-0.2-0.1-0.6-0.2-1.1-0.2c-1.9,0-1.9,2.4-1.9,3.7v3.3h-2.4V385.6z"/>
	<rect id="XMLID_197_" x="203.1" y="381.5" class="st6" width="2.4" height="13.2"/>
	<path id="XMLID_200_" class="st6" d="M215.8,393.7L215.8,393.7c-0.7,0.9-1.7,1.2-2.8,1.2c-2.8,0-3.8-2.3-3.8-4.8
		c0-2.5,1-4.7,3.8-4.7c1.2,0,2,0.4,2.7,1.3h0v-5.2h2.4v13.2h-2.3V393.7L215.8,393.7z M213.6,393.1c1.6,0,2.1-1.7,2.1-2.9
		c0-1.3-0.6-2.9-2.1-2.9c-1.5,0-2,1.7-2,2.9C211.6,391.4,212.1,393.1,213.6,393.1"/>
	<g id="XMLID_203_">
		<defs>
			<rect id="XMLID_202_" x="67.5" y="329.1" width="101.8" height="3.6"/>
		</defs>
		<clipPath id="XMLID_227_">
			<use xlink:href="#XMLID_202_"  style="overflow:visible;"/>
		</clipPath>
		
			<linearGradient id="XMLID_228_" gradientUnits="userSpaceOnUse" x1="-0.4526" y1="-0.6245" x2="0.4599" y2="-0.6245" gradientTransform="matrix(-111.5343 0 0 111.5343 118.7906 400.5329)">
			<stop  offset="0" style="stop-color:#F8DAE6"/>
			<stop  offset="0.2445" style="stop-color:#C65D7C"/>
			<stop  offset="0.3497" style="stop-color:#B41B5B"/>
			<stop  offset="0.4891" style="stop-color:#9D2055"/>
			<stop  offset="0.8324" style="stop-color:#672346"/>
			<stop  offset="1" style="stop-color:#532340"/>
		</linearGradient>
		<rect id="XMLID_204_" x="67.5" y="329.1" class="st7" width="101.8" height="3.6"/>
	</g>
</g>
</svg>
