<svg width="310" height="150" viewBox="0 0 310 150" fill="none" xmlns="http://www.w3.org/2000/svg">
<rect width="310" height="150" fill="url(#paint0_linear_6_56)"/>
<path fill-rule="evenodd" clip-rule="evenodd" d="M117.849 59.3602H108.096V93.8856H117.849C128.561 93.8856 132.865 85.8516 132.865 76.622C132.865 67.3948 128.561 59.3602 117.849 59.3602ZM117.944 91.3041H111.251V61.9438H117.944C125.595 61.9438 129.708 67.3014 129.708 76.6228C129.708 85.9483 125.595 91.3041 117.944 91.3041Z" fill="white"/>
<path d="M138.548 93.8864V59.361H158.248V61.9439H141.704V74.663H153.609V77.2453H141.704V91.3041H159.157V93.8864H138.548Z" fill="white"/>
<path d="M159.294 59.3602H162.641L172.013 89.39H172.11L181.768 59.3602H185.116L173.64 93.8856H170.483L159.294 59.3602L159.294 59.3602Z" fill="white"/>
<path d="M188.839 93.8864V59.361H208.539V61.9439H191.996V74.663H203.899V77.2453H191.996V91.3041H209.448V93.8864H188.839H188.839Z" fill="white"/>
<path d="M213.985 59.3602H217.142V91.3033H232.54V93.8856H213.985V59.3602V59.3602Z" fill="white"/>
<path fill-rule="evenodd" clip-rule="evenodd" d="M247.597 94.3635C256.252 94.3635 261.224 86.8072 261.224 76.6222C261.224 66.4371 256.252 58.8826 247.597 58.8826C238.942 58.8826 233.967 66.4371 233.967 76.6222C233.967 86.8072 238.942 94.3635 247.597 94.3635ZM247.597 61.4648C253.956 61.4648 258.067 66.9148 258.067 76.6221C258.067 86.33 253.956 91.784 247.597 91.7834C241.235 91.7834 237.122 86.3294 237.122 76.6221C237.122 66.9148 241.235 61.4648 247.597 61.4648Z" fill="white"/>
<path fill-rule="evenodd" clip-rule="evenodd" d="M266.904 59.361V93.8864H270.062V78.5844H277.33C285.555 78.5844 289 74.7595 289 68.9719C289 63.1888 285.555 59.361 277.33 59.361H266.904ZM277.329 76.002H270.062V61.9432H277.329C283.309 61.9432 285.844 64.429 285.844 68.9717C285.844 73.5161 283.309 76.002 277.329 76.002Z" fill="white"/>
<path d="M71.9878 95.8524C64.903 95.8524 58.0823 93.9368 52.0569 89.7656C47.857 86.8595 42.9962 80.2972 42.9962 69.1721C42.9962 48.5327 53.539 41 74.7257 41H112.869L116.542 52.7556H77.6324C63.6489 52.7556 55.3341 53.846 55.3341 69.1721C55.3341 74.2345 56.7616 77.8372 59.6999 80.1847C64.6658 84.1526 74.318 84.3214 80.2159 83.7529C80.2159 83.7529 82.6357 75.9716 83.0342 74.7083C83.501 73.2279 83.2966 72.8748 81.8404 72.8748C79.737 72.8748 75.9557 72.8748 71.9424 72.8748C69.1299 72.8748 66.3667 71.4593 66.3667 68.0593C66.3667 64.7759 68.9375 62.87 72.4615 62.87C78.5633 62.87 91.1302 62.87 93.4822 62.87C96.5658 62.87 99.7126 63.3122 98.1071 68.1937L89.6045 93.9799C89.6051 93.9805 82.6586 95.8524 71.9878 95.8524Z" fill="url(#paint1_linear_6_56)"/>
<path d="M95.8007 100.23C91.5153 103.23 85.1677 104.888 74.397 104.888C55.8328 104.888 42.246 98.2176 36.7064 85.2855C34.0874 79.1728 34.3395 72.2448 34.3395 62.8751H22.0022C22.0022 72.7553 21.8322 80.5022 24.4754 87.6375C31.4063 106.355 49.2544 116.411 73.2307 116.411C96.4387 116.411 106.056 109.793 112.325 100.23H95.8007Z" fill="url(#paint2_linear_6_56)"/>
<path d="M82.9647 74.9301C82.4146 76.6821 80.2158 83.7531 80.2158 83.7531C74.3179 84.3216 64.6658 84.1528 59.6999 80.1849C58.0311 78.8509 56.8505 77.111 56.1414 74.9301H43.4688C44.7877 82.6196 48.6408 87.4023 52.0569 89.7658C58.0823 93.937 64.9029 95.8526 71.9877 95.8526C82.6586 95.8526 89.605 93.9807 89.605 93.9807L95.8865 74.9301H82.9647Z" fill="white"/>
<path d="M24.4757 87.6372C31.4066 106.355 49.2547 116.411 73.231 116.411C96.4389 116.411 106.056 109.793 112.326 100.229H95.8016C91.5161 103.23 85.1686 104.888 74.3978 104.888C55.8336 104.888 42.2469 98.2173 36.7073 85.2846C35.3544 82.1264 34.7704 78.747 34.5195 74.9296H22.1661C22.4102 79.5274 23.0091 83.6768 24.4757 87.6372Z" fill="white"/>
<defs>
<linearGradient id="paint0_linear_6_56" x1="155" y1="0" x2="155" y2="150" gradientUnits="userSpaceOnUse">
<stop stop-color="#211746"/>
<stop offset="0.489583" stop-color="#331E60"/>
<stop offset="0.796875" stop-color="#3F2270"/>
<stop offset="1" stop-color="#402372"/>
</linearGradient>
<linearGradient id="paint1_linear_6_56" x1="52.8366" y1="50.2334" x2="52.8366" y2="75.6458" gradientUnits="userSpaceOnUse">
<stop stop-color="white"/>
<stop offset="1" stop-color="white"/>
</linearGradient>
<linearGradient id="paint2_linear_6_56" x1="48.4351" y1="50.2334" x2="48.4351" y2="75.6458" gradientUnits="userSpaceOnUse">
<stop stop-color="white"/>
<stop offset="1" stop-color="white"/>
</linearGradient>
</defs>
</svg>
